<?xml version="1.0" encoding="utf-8"?>
<!-- Generator: Adobe Illustrator 24.3.0, SVG Export Plug-In . SVG Version: 6.00 Build 0)  -->
<svg version="1.1" xmlns="http://www.w3.org/2000/svg" xmlns:xlink="http://www.w3.org/1999/xlink" x="0px" y="0px"
	 viewBox="0 0 1122 1122" style="enable-background:new 0 0 1122 1122;" xml:space="preserve">
<style type="text/css">
	.st0{display:none;}
	.st1{display:inline;}
	.st2{fill:#FFFFFF;}
	.st3{fill:#9DAA50;}
	.st4{fill:#616E7D;}
</style>
<g id="Bg" class="st0">
	<g class="st1">
		<g>
			<rect class="st2" width="1122" height="1122"/>
		</g>
	</g>
</g>
<g id="Object">
	<g>
		<path class="st3" d="M864.04,529.99c-47.12,0-86.55,32.86-96.66,76.89c-7.7-2.27-15.83-3.52-24.24-3.52
			c-46.99,0-85.07,38.09-85.07,85.08c0,46.95,38.09,85.06,85.07,85.06h0.15h225.52v-0.01c36.62-0.29,66.19-30.06,66.19-66.73
			c0-36.85-29.85-66.71-66.71-66.71c-1.9,0-3.77,0.1-5.64,0.26c0.39-3.64,0.65-7.33,0.65-11.08
			C963.3,574.41,918.85,529.99,864.04,529.99z"/>
		<path class="st4" d="M743.14,575.14c1.77,0,3.58,0.06,5.37,0.14c20.51-44.32,64.91-73.51,115.52-73.51
			c65.32,0,119.32,49.37,126.63,112.75c4.18,0.99,8.17,2.5,12.15,4.07c4.26-16.57,6.8-33.83,6.8-51.73
			c0-114.11-92.53-206.61-206.64-206.61c-20.48,0-40.22,3.01-58.86,8.55C719.45,261.78,623.7,181.96,509.23,181.96
			c-133.15,0-241.06,107.94-241.06,241.07c0,9.11,0.53,18.09,1.53,26.95c-4.53-0.37-9.1-0.62-13.7-0.62
			c-89.5,0-162.05,72.55-162.05,162.06c0,89.09,71.87,161.36,160.79,162.05v0.03h413.84c-23.66-20.78-38.72-51.17-38.72-85.06
			C629.85,625.97,680.67,575.14,743.14,575.14z"/>
		<path class="st3" d="M639.09,126.6l-2.79-0.4c-5.34,0-9.7,4.35-9.7,9.69v35.42c0,3.98,2.55,7.56,6.3,8.93
			c56.23,20.14,101.37,63.46,123.95,118.85c1.47,3.58,4.91,5.88,8.75,5.88h36.1c3.11,0,6.05-1.53,7.87-4.06
			c1.81-2.56,2.29-5.8,1.27-8.74C783.43,213.04,719.21,151.14,639.09,126.6z"/>
		<path class="st4" d="M650.42,24.72l-2.1-0.2c-5.35,0-9.7,4.31-9.7,9.66v34.89c0,4.34,2.96,8.12,7.22,9.2
			c103.13,25.68,185.02,105.25,213.77,207.72c1.13,4.09,4.88,6.96,9.11,6.96h34.99c3,0,5.78-1.39,7.62-3.76
			c1.84-2.35,2.48-5.4,1.76-8.27C881.26,153.75,778.14,53.19,650.42,24.72z"/>
	</g>
</g>
</svg>
