<?xml version="1.0" encoding="utf-8"?>
<!-- Generator: Adobe Illustrator 24.3.0, SVG Export Plug-In . SVG Version: 6.00 Build 0)  -->
<svg version="1.1" id="Layer_1" xmlns="http://www.w3.org/2000/svg" xmlns:xlink="http://www.w3.org/1999/xlink" x="0px" y="0px"
	 viewBox="0 0 100 100" style="enable-background:new 0 0 100 100;" xml:space="preserve">
<style type="text/css">
	.st0{display:none;}
	.st1{display:inline;fill:#FFFFFF;}
	.st2{display:inline;}
	.st3{fill:#FFFFFF;}
</style>
<g class="st0">
	<rect x="19.74" y="33.41" class="st1" width="18.03" height="41.3"/>
	<rect x="40.88" y="47.5" class="st1" width="18.03" height="27.2"/>
	<rect x="62.02" y="19.32" class="st1" width="18.03" height="55.39"/>
	<rect x="16.14" y="77.49" class="st1" width="67.84" height="3.28"/>
</g>
<g class="st0">
	<g class="st2">
		<path class="st3" d="M76,16.72H24.11c-4.07,0-7.38,3.3-7.38,7.38v51.89c0,4.07,3.3,7.38,7.38,7.38H76c4.07,0,7.37-3.3,7.37-7.38
			V24.1C83.38,20.03,80.08,16.72,76,16.72z M49.31,73.59c0,1.36-1.1,2.46-2.46,2.46H26.51c-1.36,0-2.46-1.1-2.46-2.46V56.25
			c0-1.36,1.1-2.46,2.46-2.46h20.34c1.36,0,2.46,1.1,2.46,2.46V73.59z M49.31,46.84c0,1.36-1.1,2.46-2.46,2.46H26.51
			c-1.36,0-2.46-1.1-2.46-2.46V26.5c0-1.36,1.1-2.47,2.46-2.47h20.34c1.36,0,2.46,1.1,2.46,2.47V46.84z M76.07,73.59
			c0,1.36-1.1,2.46-2.46,2.46H56.27c-1.36,0-2.46-1.1-2.46-2.46V47.25c0-1.36,1.1-2.46,2.46-2.46H73.6c1.36,0,2.46,1.1,2.46,2.46
			V73.59z M76.07,37.84c0,1.36-1.1,2.46-2.46,2.46H56.27c-1.36,0-2.46-1.1-2.46-2.46V26.5c0-1.36,1.1-2.47,2.46-2.47H73.6
			c1.36,0,2.46,1.1,2.46,2.47V37.84z"/>
	</g>
</g>
<g>
	<path class="st3" d="M72.18,22.1c0.05-3.93-1.81-7.44-4.71-9.66c-0.43-0.33-1.05-0.02-1.05,0.52v8.33l-6.24,3.83l-6.23-3.83v-8.33
		c0-0.54-0.62-0.85-1.05-0.52c-2.82,2.16-4.67,5.54-4.71,9.37c-0.06,4.98,2.92,9.29,7.23,11.15v33.87
		c-4.2,1.82-7.17,5.98-7.23,10.85c-0.05,3.93,1.81,7.44,4.71,9.66c0.43,0.33,1.05,0.02,1.05-0.52v-8.33l6.24-3.83l6.23,3.83v8.33
		c0,0.54,0.62,0.85,1.04,0.52c2.82-2.16,4.67-5.54,4.71-9.37c0.06-4.98-2.93-9.29-7.23-11.15V32.95
		C69.15,31.13,72.12,26.97,72.18,22.1z"/>
	<path class="st3" d="M40.94,47.07h-3.75V24.78l1.64-2.59l-1.98-9.88h-3.96l-1.98,9.88l1.64,2.59v22.29H28.8
		c-0.51,0-0.92,0.47-0.92,1.05v1.8c0,0.58,0.41,1.05,0.92,1.05h0.21c-0.71,1.22-1.13,2.68-1.13,4.25V80.3
		c0,4.24,3.02,7.68,6.74,7.68h0.5c3.72,0,6.74-3.44,6.74-7.68V55.22c0-1.57-0.42-3.04-1.13-4.25h0.21c0.51,0,0.92-0.47,0.92-1.05
		v-1.8C41.86,47.54,41.45,47.07,40.94,47.07z M31.18,82.79h-1.51V55.22h1.51V82.79z M35.54,82.79h-1.51V55.22h1.51V82.79z
		 M39.9,82.79h-1.51V55.22h1.51V82.79z"/>
</g>
</svg>
