<?xml version="1.0" encoding="utf-8"?>
<!-- Generator: Adobe Illustrator 24.3.0, SVG Export Plug-In . SVG Version: 6.00 Build 0)  -->
<svg version="1.1" id="Layer_1" xmlns="http://www.w3.org/2000/svg" xmlns:xlink="http://www.w3.org/1999/xlink" x="0px" y="0px"
	 viewBox="0 0 100 100" style="enable-background:new 0 0 100 100;" xml:space="preserve">
<style type="text/css">
	.st0{display:none;}
	.st1{display:inline;fill:#FFFFFF;}
	.st2{fill:#FFFFFF;}
</style>
<g class="st0">
	<rect x="19.74" y="33.41" class="st1" width="18.03" height="41.3"/>
	<rect x="40.88" y="47.5" class="st1" width="18.03" height="27.2"/>
	<rect x="62.02" y="19.32" class="st1" width="18.03" height="55.39"/>
	<rect x="16.14" y="77.49" class="st1" width="67.84" height="3.28"/>
</g>
<g>
	<g>
		<path class="st2" d="M76,16.72H24.11c-4.07,0-7.38,3.3-7.38,7.38v51.89c0,4.07,3.3,7.38,7.38,7.38H76c4.07,0,7.37-3.3,7.37-7.38
			V24.1C83.38,20.03,80.08,16.72,76,16.72z M49.31,73.59c0,1.36-1.1,2.46-2.46,2.46H26.51c-1.36,0-2.46-1.1-2.46-2.46V56.25
			c0-1.36,1.1-2.46,2.46-2.46h20.34c1.36,0,2.46,1.1,2.46,2.46V73.59z M49.31,46.84c0,1.36-1.1,2.46-2.46,2.46H26.51
			c-1.36,0-2.46-1.1-2.46-2.46V26.5c0-1.36,1.1-2.47,2.46-2.47h20.34c1.36,0,2.46,1.1,2.46,2.47V46.84z M76.07,73.59
			c0,1.36-1.1,2.46-2.46,2.46H56.27c-1.36,0-2.46-1.1-2.46-2.46V47.25c0-1.36,1.1-2.46,2.46-2.46H73.6c1.36,0,2.46,1.1,2.46,2.46
			V73.59z M76.07,37.84c0,1.36-1.1,2.46-2.46,2.46H56.27c-1.36,0-2.46-1.1-2.46-2.46V26.5c0-1.36,1.1-2.47,2.46-2.47H73.6
			c1.36,0,2.46,1.1,2.46,2.47V37.84z"/>
	</g>
</g>
</svg>
