<?xml version="1.0" encoding="utf-8"?>
<!-- Generator: Adobe Illustrator 24.3.0, SVG Export Plug-In . SVG Version: 6.00 Build 0)  -->
<svg version="1.1" xmlns="http://www.w3.org/2000/svg" xmlns:xlink="http://www.w3.org/1999/xlink" x="0px" y="0px"
	 viewBox="0 0 1122 1122" style="enable-background:new 0 0 1122 1122;" xml:space="preserve">
<style type="text/css">
	.st0{display:none;}
	.st1{display:inline;}
	.st2{fill:#FFFFFF;}
	.st3{fill:#9DAA50;}
	.st4{fill:#616E7D;}
	.st5{fill:#754B21;}
	.st6{fill:#D3FBFF;}
	.st7{fill:#BFF6FF;}
	.st8{fill:#DD4B23;}
	.st9{fill:#F6F6F6;}
	.st10{fill:#F0F1F1;}
	.st11{fill:#C14320;}
	.st12{fill:#B8D6D3;}
	.st13{fill:#D4E6E3;}
	.st14{fill:#D1FBFF;}
	.st15{fill:#E4FBFF;}
	.st16{fill:#9ACC45;}
	.st17{fill:#86B43C;}
	.st18{fill:#7EA735;}
	.st19{fill:#F4DA56;}
	.st20{fill:#EDB931;}
	.st21{fill:#F0C641;}
	.st22{fill:#F7E587;}
</style>
<g id="Bg" class="st0">
	<g class="st1">
		<g>
			<rect class="st2" width="1122" height="1122"/>
		</g>
	</g>
</g>
<g id="Object" class="st0">
	<g class="st1">
		<path class="st3" d="M864.04,529.99c-47.12,0-86.55,32.86-96.66,76.89c-7.7-2.27-15.83-3.52-24.24-3.52
			c-46.99,0-85.07,38.09-85.07,85.08c0,46.95,38.09,85.06,85.07,85.06h0.15h225.52v-0.01c36.62-0.29,66.19-30.06,66.19-66.73
			c0-36.85-29.85-66.71-66.71-66.71c-1.9,0-3.77,0.1-5.64,0.26c0.39-3.64,0.65-7.33,0.65-11.08
			C963.3,574.41,918.85,529.99,864.04,529.99z"/>
		<path class="st4" d="M743.14,575.14c1.77,0,3.58,0.06,5.37,0.14c20.51-44.32,64.91-73.51,115.52-73.51
			c65.32,0,119.32,49.37,126.63,112.75c4.18,0.99,8.17,2.5,12.15,4.07c4.26-16.57,6.8-33.83,6.8-51.73
			c0-114.11-92.53-206.61-206.64-206.61c-20.48,0-40.22,3.01-58.86,8.55C719.45,261.78,623.7,181.96,509.23,181.96
			c-133.15,0-241.06,107.94-241.06,241.07c0,9.11,0.53,18.09,1.53,26.95c-4.53-0.37-9.1-0.62-13.7-0.62
			c-89.5,0-162.05,72.55-162.05,162.06c0,89.09,71.87,161.36,160.79,162.05v0.03h413.84c-23.66-20.78-38.72-51.17-38.72-85.06
			C629.85,625.97,680.67,575.14,743.14,575.14z"/>
		<path class="st3" d="M639.09,126.6l-2.79-0.4c-5.34,0-9.7,4.35-9.7,9.69v35.42c0,3.98,2.55,7.56,6.3,8.93
			c56.23,20.14,101.37,63.46,123.95,118.85c1.47,3.58,4.91,5.88,8.75,5.88h36.1c3.11,0,6.05-1.53,7.87-4.06
			c1.81-2.56,2.29-5.8,1.27-8.74C783.43,213.04,719.21,151.14,639.09,126.6z"/>
		<path class="st4" d="M650.42,24.72l-2.1-0.2c-5.35,0-9.7,4.31-9.7,9.66v34.89c0,4.34,2.96,8.12,7.22,9.2
			c103.13,25.68,185.02,105.25,213.77,207.72c1.13,4.09,4.88,6.96,9.11,6.96h34.99c3,0,5.78-1.39,7.62-3.76
			c1.84-2.35,2.48-5.4,1.76-8.27C881.26,153.75,778.14,53.19,650.42,24.72z"/>
	</g>
</g>
<g id="Layer_3">
	<g class="st0">
		<g class="st1">
			<g>
				<circle class="st5" cx="658.6" cy="461.83" r="125.8"/>
			</g>
			<g>
				<circle class="st5" cx="498.1" cy="509.54" r="125.8"/>
			</g>
			<g>
				<path class="st5" d="M845.13,522.55c0,45.52-36.9,82.42-82.42,82.42c-45.52,0-82.42-36.9-82.42-82.42s36.9-82.42,82.42-82.42
					C808.23,440.14,845.13,477.04,845.13,522.55z"/>
			</g>
			<g>
				<path class="st5" d="M437.37,518.22c0,45.52-36.9,82.42-82.42,82.42s-82.42-36.9-82.42-82.42c0-45.52,36.9-82.42,82.42-82.42
					S437.37,472.7,437.37,518.22z"/>
			</g>
			<g>
				<rect x="276.87" y="522.55" class="st5" width="572.59" height="365.45"/>
			</g>
		</g>
		<g class="st1">
			<g>
				<g>
					<path class="st6" d="M413.33,321.41c0,23.41,18.97,42.38,42.38,42.38V231.93C455.71,231.93,413.33,298,413.33,321.41z"/>
				</g>
				<g>
					<path class="st7" d="M455.71,231.93v131.86c23.41,0,42.38-18.97,42.38-42.38C498.1,298,455.71,231.93,455.71,231.93z"/>
				</g>
			</g>
			<g>
				<path class="st2" d="M450.22,329.25c0,6.93-5.62,12.56-12.56,12.56c-6.94,0-12.56-5.62-12.56-12.56
					c0-6.94,5.62-12.56,12.56-12.56C444.6,316.7,450.22,322.32,450.22,329.25z"/>
			</g>
		</g>
		<g class="st1">
			<g>
				<g>
					<path class="st6" d="M553.9,229.22c0,17.85,14.47,32.31,32.31,32.31V161C586.21,161,553.9,211.37,553.9,229.22z"/>
				</g>
				<g>
					<path class="st7" d="M586.21,161v100.53c17.85,0,32.31-14.47,32.31-32.31C618.52,211.37,586.21,161,586.21,161z"/>
				</g>
			</g>
			<g>
				<path class="st2" d="M582.02,235.2c0,5.29-4.29,9.57-9.57,9.57c-5.29,0-9.57-4.29-9.57-9.57c0-5.29,4.29-9.57,9.57-9.57
					C577.73,225.63,582.02,229.91,582.02,235.2z"/>
			</g>
		</g>
		<g class="st1">
			<g>
				<g>
					<path class="st6" d="M725.91,352.95c0,17.85,14.47,32.31,32.31,32.31V284.73C758.23,284.73,725.91,335.1,725.91,352.95z"/>
				</g>
				<g>
					<path class="st7" d="M758.23,284.73v100.53c17.85,0,32.31-14.47,32.31-32.31C790.54,335.1,758.23,284.73,758.23,284.73z"/>
				</g>
			</g>
			<g>
				<path class="st2" d="M754.04,358.93c0,5.29-4.29,9.57-9.57,9.57s-9.57-4.29-9.57-9.57c0-5.29,4.29-9.57,9.57-9.57
					S754.04,353.64,754.04,358.93z"/>
			</g>
		</g>
		<g class="st1">
			<g>
				<g>
					<path class="st6" d="M296.75,248.75c0,14.08,11.42,25.5,25.5,25.5v-79.33C322.25,194.92,296.75,234.67,296.75,248.75z"/>
				</g>
				<g>
					<path class="st7" d="M322.25,194.92v79.33c14.08,0,25.5-11.42,25.5-25.5C347.75,234.67,322.25,194.92,322.25,194.92z"/>
				</g>
			</g>
			<g>
				<path class="st2" d="M318.95,253.47c0,4.17-3.38,7.56-7.56,7.56c-4.17,0-7.56-3.38-7.56-7.56c0-4.17,3.38-7.56,7.56-7.56
					C315.57,245.92,318.95,249.3,318.95,253.47z"/>
			</g>
		</g>
	</g>
	<g class="st0">
		<g class="st1">
			<rect x="638.12" y="225.62" class="st8" width="76.07" height="21.94"/>
		</g>
		<g class="st1">
			<rect x="638.12" y="287.79" class="st8" width="40.96" height="21.94"/>
		</g>
		<g class="st1">
			<rect x="638.12" y="349.97" class="st8" width="76.07" height="21.94"/>
		</g>
		<g class="st1">
			<rect x="638.12" y="412.14" class="st8" width="40.96" height="21.94"/>
		</g>
		<g class="st1">
			<rect x="638.12" y="474.31" class="st8" width="76.07" height="21.94"/>
		</g>
		<g class="st1">
			<rect x="638.12" y="536.48" class="st8" width="40.96" height="21.94"/>
		</g>
		<g class="st1">
			<rect x="638.12" y="598.65" class="st8" width="76.07" height="21.94"/>
		</g>
		<g class="st1">
			<g>
				<g>
					<path class="st9" d="M543.56,165v725c-0.09,0-0.09,0-0.09,0c-17.29,0-34.67-3.25-51.61-9.66
						c-35.2-13.25-62.67-41.34-75.48-76.98c-22.73-63.37,1.14-131.31,55.73-164.92v-395.5c0-43.01,32.04-77.94,71.36-77.94
						C543.47,165,543.47,165,543.56,165z"/>
				</g>
				<g>
					<path class="st10" d="M679.25,754.13c0,74.87-60.83,135.78-135.7,135.87V165c39.23,0,71.18,34.93,71.18,77.94v395.5
						C654.41,663.02,679.25,706.73,679.25,754.13z"/>
				</g>
			</g>
			<g>
				<g>
					<g>
						<path class="st11" d="M626.97,754.09c0-32.73-19.3-62.62-49.16-76.15l-15.36-6.96v-16.86V523.78
							c0-13.84-8.66-25.54-18.92-25.61v339.51C589.55,837.63,626.97,800.16,626.97,754.09z"/>
					</g>
				</g>
				<g>
					<g>
						<path class="st8" d="M524.42,523.78v130.34v16.86l-15.36,6.96c-35.11,15.91-61.32,58.05-43.46,107.78
							c7.72,21.5,23.61,37.73,44.74,45.71c11,4.15,22.13,6.25,33.1,6.25c0.03,0,0.06-0.01,0.09-0.01V498.17
							c-0.03,0-0.06-0.01-0.09-0.01C533.13,498.16,524.42,509.89,524.42,523.78z"/>
					</g>
				</g>
				<g>
					<g>
						<path class="st12" d="M679.25,754.13c0,74.87-60.83,135.78-135.7,135.87v-26.16h0.26c0.79,0,1.49-0.09,2.28-0.18
							c3.51-0.09,6.93-0.26,10.36-0.7c1.4-0.17,2.81-0.35,4.13-0.61c2.81-0.44,5.53-0.97,8.16-1.58c1.49-0.35,2.9-0.7,4.3-1.14
							c2.72-0.7,5.27-1.58,7.9-2.54c1.23-0.44,2.46-0.79,3.69-1.32c3.34-1.32,6.5-2.81,9.66-4.48c0.44-0.18,0.88-0.35,1.23-0.61
							c3.51-1.93,6.85-3.95,10.09-6.23c1.05-0.7,2.02-1.49,2.98-2.19c2.19-1.67,4.39-3.34,6.5-5.18l3.16-2.9
							c1.93-1.76,3.77-3.6,5.53-5.53c0.97-1.05,1.93-2.11,2.81-3.16c1.93-2.19,3.69-4.48,5.44-6.85c0.61-0.88,1.32-1.67,1.93-2.55
							c2.19-3.25,4.3-6.67,6.14-10.18c0.44-0.79,0.79-1.67,1.23-2.46c1.4-2.81,2.63-5.53,3.86-8.43c0.53-1.32,0.97-2.63,1.4-3.95
							c0.88-2.54,1.76-5.09,2.46-7.72c0.44-1.49,0.79-2.9,1.14-4.3c0.61-2.81,1.14-5.62,1.58-8.43c0.18-1.32,0.44-2.54,0.53-3.86
							c0.53-4.21,0.79-8.43,0.79-12.64c0-44.59-26.51-82.77-64.51-99.97V242.94c0-7.2-1.23-14.04-3.51-20.19
							c-6.85-18.61-22.91-31.6-41.52-31.6V165c39.23,0,71.18,34.93,71.18,77.94v395.5C654.41,663.02,679.25,706.73,679.25,754.13z"
							/>
					</g>
				</g>
				<g>
					<g>
						<path class="st13" d="M440.95,794.59c10.27,28.44,31.86,50.64,60.12,61.26c4.39,1.67,8.78,2.98,13.17,4.13
							c1.23,0.35,2.46,0.61,3.77,0.88c3.25,0.7,6.58,1.32,9.83,1.76c1.14,0.18,2.28,0.35,3.42,0.53c4.13,0.44,8.16,0.7,12.2,0.7
							c0,0,0,0,0.09,0V890c-0.09,0-0.09,0-0.09,0c-17.29,0-34.67-3.25-51.61-9.66c-35.2-13.25-62.67-41.34-75.48-76.98
							c-22.73-63.37,1.14-131.31,55.73-164.92v-395.5c0-43.01,32.04-77.94,71.36-77.94c0,0,0,0,0.09,0v26.16c-0.09,0-0.09,0-0.09,0
							c-18.78,0-34.76,12.99-41.69,31.6c-2.28,6.14-3.51,12.99-3.51,20.19v411.21C449.11,676.36,419.18,733.85,440.95,794.59z"/>
					</g>
				</g>
			</g>
		</g>
	</g>
	<g>
		<g>
			<rect x="184.16" y="408.28" class="st6" width="749.85" height="479.72"/>
		</g>
		<g>
			<g>
				<polygon class="st7" points="560.11,210.79 218.54,417.13 218.54,888 560.13,888 560.13,210.8 				"/>
			</g>
			<g>
				<polygon class="st14" points="560.13,888 901.68,888 901.68,417.13 560.13,210.8 				"/>
			</g>
			<g>
				<polygon class="st15" points="901.68,366 901.68,417.13 970.5,458.71 997.78,424.05 				"/>
			</g>
			<g>
				<polygon class="st15" points="122.47,424.05 149.72,458.71 218.54,417.13 218.54,366 				"/>
			</g>
			<g>
				<polygon class="st15" points="560.74,160 560.13,161.44 560.13,210.8 901.68,417.13 901.68,366 				"/>
			</g>
			<g>
				<polygon class="st15" points="560.13,210.8 560.13,161.44 560.11,161.48 559.51,160 218.54,366 218.54,417.13 560.11,210.79 
									"/>
			</g>
		</g>
		<g>
			<g>
				<g>
					<g>
						<path class="st16" d="M522.17,527.43c0,0-42.76,22.69-74.17,25.3c-31.41,2.62-68.06-13.96-87.25-14.83
							c-19.2-0.87-72.42,4.36-72.42,4.36s68.06-106.45,159.68-92.49c91.62,13.96,75.04,75.04,75.04,75.04L522.17,527.43z"/>
					</g>
					<g>
						<path class="st17" d="M561.44,596.23v251.82l-12.22-3.49l1.25-243.8c0.32-30.81-14.47-59.8-39.56-77.68
							c-17.15-12.21-42.46-21.33-52.43-23.58c-46.25-10.47-102.96-1.74-102.96-1.74s69.8-16.58,108.2-4.36
							c16.14,5.13,40.29,13.82,56.79,25.2C546.07,536.22,561.44,565.18,561.44,596.23z"/>
					</g>
				</g>
				<g>
					<g>
						<path class="st16" d="M604.19,525.68c0,0,36.65,15.71,68.06,18.32c31.41,2.62,68.06-13.96,87.25-14.83
							c19.2-0.87,72.42,4.36,72.42,4.36s-68.06-106.45-159.68-92.49c-91.62,13.96-74.17,81.15-74.17,81.15L604.19,525.68z"/>
					</g>
					<g>
						<path class="st18" d="M561.44,596.23v251.82l12.22-3.49l-1.25-243.8c-0.33-30.81,14.47-59.8,39.56-77.68
							c17.14-12.21,42.46-21.33,52.43-23.58c46.24-10.47,102.96-1.74,102.96-1.74s-69.8-16.58-108.2-4.36
							c-16.14,5.13-40.29,13.82-56.79,25.2C576.81,536.22,561.44,565.18,561.44,596.23z"/>
					</g>
				</g>
				<g>
					<path class="st16" d="M558.82,524.81c0,0,13.96,25.3,11.34,37.52c-2.62,12.22-9.6,28.79-9.6,28.79s-12.22-25.3-11.34-35.78
						C550.09,544.88,558.82,524.81,558.82,524.81z"/>
				</g>
			</g>
		</g>
		<g>
			<path class="st5" d="M218.54,888h683.14c0,0-9.13-69.01-66.61-74.76c-57.48-5.75-80.47,17.24-80.47,17.24
				s-19.03-39.3-74.72-45.98c-47.9-5.75-80.47,28.74-80.47,28.74s-22.99-51.73-80.47-40.23c-57.48,11.5-57.48,51.73-57.48,51.73
				s-34.94-41.77-100.33-27.56c-53.56,11.64-54.86,44.8-54.86,44.8s-28.98-7.54-63.22,5.75C226.11,854.3,218.54,888,218.54,888z"/>
		</g>
	</g>
	<g class="st0">
		<g class="st1">
			<g>
				<g>
					<g>
						<path class="st16" d="M300.2,202.14c135.1,0,244.62,109.52,244.62,244.62v89.63c0,135.1-109.52,244.62-244.62,244.62h-8.71
							c-135.1,0-244.62-109.52-244.62-244.62v-89.63c0-135.1,109.52-244.62,244.62-244.62H300.2L300.2,202.14z M300.2,162.27h-8.71
							C134.62,162.27,7,289.89,7,446.76v89.63c0,156.87,127.62,284.49,284.49,284.49h8.71c156.87,0,284.49-127.62,284.49-284.49
							v-89.63C584.69,289.89,457.07,162.27,300.2,162.27L300.2,162.27z"/>
					</g>
				</g>
				<g>
					<g>
						<rect x="572.83" y="482.87" class="st19" width="311.9" height="17.42"/>
					</g>
				</g>
			</g>
			<g>
				<g>
					<g>
						<path class="st17" d="M1065.39,322.88l-46.21,46.21l81.4,81.4l0.46-0.46c25.26-25.27,25.26-66.23,0-91.49L1065.39,322.88z"/>
					</g>
				</g>
				<g>
					<g>
						<path class="st16" d="M1065.39,322.88l-38.92-38.92c-25.26-25.26-66.23-25.26-91.49,0l-0.46,0.46l84.66,84.66L1065.39,322.88z
							"/>
					</g>
				</g>
				<g>
					<g>
						<polygon class="st20" points="956.67,431.6 974.99,449.92 1100.59,450.49 1019.19,369.09 						"/>
					</g>
				</g>
				<g>
					<g>
						<polygon class="st21" points="1019.19,369.09 934.52,284.42 935.09,410.03 956.67,431.6 						"/>
					</g>
				</g>
				<g>
					<g>
						<polygon class="st21" points="605.13,783.14 637.61,834.37 974.99,449.92 956.67,431.6 						"/>
					</g>
				</g>
				<g>
					<g>
						<polygon class="st19" points="935.09,410.03 575.87,736.97 605.13,783.14 956.67,431.6 						"/>
					</g>
				</g>
			</g>
			<g>
				<g>
					<g>
						<path class="st19" d="M195.35,406.86l-33.4,480.59h239.67V350.12H256.18C224.14,350.12,197.57,374.9,195.35,406.86z"/>
					</g>
				</g>
				<g>
					<g>
						<path class="st22" d="M364.31,387.51c0,0-18.59,12.45-39.83,16.42c-33.42,6.25-59.28,38.6-61.22,72.54l-21.33,373.64h-39.96
							l27.24-391.76c2.45-35.15,30.35-63.17,65.5-65.74L364.31,387.51z"/>
					</g>
				</g>
				<g>
					<g>
						<path class="st21" d="M547.07,350.12H401.62v537.34H641.3l-33.4-480.59C605.67,374.9,579.1,350.12,547.07,350.12z"/>
					</g>
				</g>
				<g>
					<g>
						<polygon class="st20" points="601.21,850.11 439.01,850.11 439.01,820.97 572.21,820.97 575.87,461.08 						"/>
					</g>
				</g>
			</g>
		</g>
		<g class="st1">
			<g>
				<g>
					<path class="st6" d="M346.17,690.32c0,31.04,25.16,56.2,56.2,56.2V571.67C402.37,571.67,346.17,659.28,346.17,690.32z"/>
				</g>
				<g>
					<path class="st7" d="M402.37,571.67v174.84c31.04,0,56.2-25.16,56.2-56.2C458.57,659.28,402.37,571.67,402.37,571.67z"/>
				</g>
			</g>
			<g>
				<path class="st2" d="M395.09,700.72c0,9.2-7.45,16.65-16.65,16.65c-9.2,0-16.65-7.46-16.65-16.65c0-9.2,7.45-16.65,16.65-16.65
					C387.63,684.07,395.09,691.53,395.09,700.72z"/>
			</g>
		</g>
	</g>
</g>
</svg>
