<?xml version="1.0" encoding="utf-8"?>
<!-- Generator: Adobe Illustrator 24.3.0, SVG Export Plug-In . SVG Version: 6.00 Build 0)  -->
<svg version="1.1" xmlns="http://www.w3.org/2000/svg" xmlns:xlink="http://www.w3.org/1999/xlink" x="0px" y="0px"
	 viewBox="0 0 1122 1122" style="enable-background:new 0 0 1122 1122;" xml:space="preserve">
<style type="text/css">
	.st0{display:none;}
	.st1{display:inline;}
	.st2{fill:#FFFFFF;}
	.st3{fill:#9DAA50;}
	.st4{fill:#616E7D;}
	.st5{fill:#754B21;}
	.st6{fill:#D3FBFF;}
	.st7{fill:#BFF6FF;}
	.st8{fill:#DD4B23;}
	.st9{fill:#F6F6F6;}
	.st10{fill:#F0F1F1;}
	.st11{fill:#C14320;}
	.st12{fill:#B8D6D3;}
	.st13{fill:#D4E6E3;}
	.st14{fill:#D1FBFF;}
	.st15{fill:#E4FBFF;}
	.st16{fill:#9ACC45;}
	.st17{fill:#86B43C;}
	.st18{fill:#7EA735;}
	.st19{fill:#F4DA56;}
	.st20{fill:#EDB931;}
	.st21{fill:#F0C641;}
	.st22{fill:#F7E587;}
</style>
<g id="Bg" class="st0">
	<g class="st1">
		<g>
			<rect class="st2" width="1122" height="1122"/>
		</g>
	</g>
</g>
<g id="Object" class="st0">
	<g class="st1">
		<path class="st3" d="M864.04,529.99c-47.12,0-86.55,32.86-96.66,76.89c-7.7-2.27-15.83-3.52-24.24-3.52
			c-46.99,0-85.07,38.09-85.07,85.08c0,46.95,38.09,85.06,85.07,85.06h0.15h225.52v-0.01c36.62-0.29,66.19-30.06,66.19-66.73
			c0-36.85-29.85-66.71-66.71-66.71c-1.9,0-3.77,0.1-5.64,0.26c0.39-3.64,0.65-7.33,0.65-11.08
			C963.3,574.41,918.85,529.99,864.04,529.99z"/>
		<path class="st4" d="M743.14,575.14c1.77,0,3.58,0.06,5.37,0.14c20.51-44.32,64.91-73.51,115.52-73.51
			c65.32,0,119.32,49.37,126.63,112.75c4.18,0.99,8.17,2.5,12.15,4.07c4.26-16.57,6.8-33.83,6.8-51.73
			c0-114.11-92.53-206.61-206.64-206.61c-20.48,0-40.22,3.01-58.86,8.55C719.45,261.78,623.7,181.96,509.23,181.96
			c-133.15,0-241.06,107.94-241.06,241.07c0,9.11,0.53,18.09,1.53,26.95c-4.53-0.37-9.1-0.62-13.7-0.62
			c-89.5,0-162.05,72.55-162.05,162.06c0,89.09,71.87,161.36,160.79,162.05v0.03h413.84c-23.66-20.78-38.72-51.17-38.72-85.06
			C629.85,625.97,680.67,575.14,743.14,575.14z"/>
		<path class="st3" d="M639.09,126.6l-2.79-0.4c-5.34,0-9.7,4.35-9.7,9.69v35.42c0,3.98,2.55,7.56,6.3,8.93
			c56.23,20.14,101.37,63.46,123.95,118.85c1.47,3.58,4.91,5.88,8.75,5.88h36.1c3.11,0,6.05-1.53,7.87-4.06
			c1.81-2.56,2.29-5.8,1.27-8.74C783.43,213.04,719.21,151.14,639.09,126.6z"/>
		<path class="st4" d="M650.42,24.72l-2.1-0.2c-5.35,0-9.7,4.31-9.7,9.66v34.89c0,4.34,2.96,8.12,7.22,9.2
			c103.13,25.68,185.02,105.25,213.77,207.72c1.13,4.09,4.88,6.96,9.11,6.96h34.99c3,0,5.78-1.39,7.62-3.76
			c1.84-2.35,2.48-5.4,1.76-8.27C881.26,153.75,778.14,53.19,650.42,24.72z"/>
	</g>
</g>
<g id="Layer_3">
	<g>
		<g>
			<g>
				<circle class="st5" cx="658.6" cy="461.83" r="125.8"/>
			</g>
			<g>
				<circle class="st5" cx="498.1" cy="509.54" r="125.8"/>
			</g>
			<g>
				<path class="st5" d="M845.13,522.55c0,45.52-36.9,82.42-82.42,82.42c-45.52,0-82.42-36.9-82.42-82.42s36.9-82.42,82.42-82.42
					C808.23,440.14,845.13,477.04,845.13,522.55z"/>
			</g>
			<g>
				<path class="st5" d="M437.37,518.22c0,45.52-36.9,82.42-82.42,82.42s-82.42-36.9-82.42-82.42c0-45.52,36.9-82.42,82.42-82.42
					S437.37,472.7,437.37,518.22z"/>
			</g>
			<g>
				<rect x="276.87" y="522.55" class="st5" width="572.59" height="365.45"/>
			</g>
		</g>
		<g>
			<g>
				<g>
					<path class="st6" d="M413.33,321.41c0,23.41,18.97,42.38,42.38,42.38V231.93C455.71,231.93,413.33,298,413.33,321.41z"/>
				</g>
				<g>
					<path class="st7" d="M455.71,231.93v131.86c23.41,0,42.38-18.97,42.38-42.38C498.1,298,455.71,231.93,455.71,231.93z"/>
				</g>
			</g>
			<g>
				<path class="st2" d="M450.22,329.25c0,6.93-5.62,12.56-12.56,12.56c-6.94,0-12.56-5.62-12.56-12.56
					c0-6.94,5.62-12.56,12.56-12.56C444.6,316.7,450.22,322.32,450.22,329.25z"/>
			</g>
		</g>
		<g>
			<g>
				<g>
					<path class="st6" d="M553.9,229.22c0,17.85,14.47,32.31,32.31,32.31V161C586.21,161,553.9,211.37,553.9,229.22z"/>
				</g>
				<g>
					<path class="st7" d="M586.21,161v100.53c17.85,0,32.31-14.47,32.31-32.31C618.52,211.37,586.21,161,586.21,161z"/>
				</g>
			</g>
			<g>
				<path class="st2" d="M582.02,235.2c0,5.29-4.29,9.57-9.57,9.57c-5.29,0-9.57-4.29-9.57-9.57c0-5.29,4.29-9.57,9.57-9.57
					C577.73,225.63,582.02,229.91,582.02,235.2z"/>
			</g>
		</g>
		<g>
			<g>
				<g>
					<path class="st6" d="M725.91,352.95c0,17.85,14.47,32.31,32.31,32.31V284.73C758.23,284.73,725.91,335.1,725.91,352.95z"/>
				</g>
				<g>
					<path class="st7" d="M758.23,284.73v100.53c17.85,0,32.31-14.47,32.31-32.31C790.54,335.1,758.23,284.73,758.23,284.73z"/>
				</g>
			</g>
			<g>
				<path class="st2" d="M754.04,358.93c0,5.29-4.29,9.57-9.57,9.57s-9.57-4.29-9.57-9.57c0-5.29,4.29-9.57,9.57-9.57
					S754.04,353.64,754.04,358.93z"/>
			</g>
		</g>
		<g>
			<g>
				<g>
					<path class="st6" d="M296.75,248.75c0,14.08,11.42,25.5,25.5,25.5v-79.33C322.25,194.92,296.75,234.67,296.75,248.75z"/>
				</g>
				<g>
					<path class="st7" d="M322.25,194.92v79.33c14.08,0,25.5-11.42,25.5-25.5C347.75,234.67,322.25,194.92,322.25,194.92z"/>
				</g>
			</g>
			<g>
				<path class="st2" d="M318.95,253.47c0,4.17-3.38,7.56-7.56,7.56c-4.17,0-7.56-3.38-7.56-7.56c0-4.17,3.38-7.56,7.56-7.56
					C315.57,245.92,318.95,249.3,318.95,253.47z"/>
			</g>
		</g>
	</g>
	<g class="st0">
		<g class="st1">
			<rect x="678.32" y="101.23" class="st8" width="115.73" height="33.38"/>
		</g>
		<g class="st1">
			<rect x="678.32" y="195.82" class="st8" width="62.32" height="33.38"/>
		</g>
		<g class="st1">
			<rect x="678.32" y="290.4" class="st8" width="115.73" height="33.38"/>
		</g>
		<g class="st1">
			<rect x="678.32" y="384.99" class="st8" width="62.32" height="33.38"/>
		</g>
		<g class="st1">
			<rect x="678.32" y="479.58" class="st8" width="115.73" height="33.38"/>
		</g>
		<g class="st1">
			<rect x="678.32" y="574.17" class="st8" width="62.32" height="33.38"/>
		</g>
		<g class="st1">
			<rect x="678.32" y="668.75" class="st8" width="115.73" height="33.38"/>
		</g>
		<g class="st1">
			<g>
				<g>
					<path class="st9" d="M534.46,9v1103c-0.13,0-0.13,0-0.13,0c-26.31,0-52.75-4.94-78.52-14.69
						c-53.55-20.16-95.34-62.89-114.84-117.11c-34.59-96.41,1.73-199.77,84.79-250.91V127.58C425.77,62.15,474.51,9,534.33,9
						C534.33,9,534.33,9,534.46,9z"/>
				</g>
				<g>
					<path class="st10" d="M740.91,905.29c0,113.9-92.54,206.58-206.44,206.71V9c59.69,0,108.3,53.15,108.3,118.58v601.71
						C703.12,766.68,740.91,833.18,740.91,905.29z"/>
				</g>
			</g>
			<g>
				<g>
					<g>
						<path class="st11" d="M661.36,905.23c0-49.79-29.36-95.27-74.79-115.85l-23.36-10.59v-25.66V554.84
							c0-21.06-13.17-38.85-28.79-38.96v516.52C604.43,1032.32,661.36,975.31,661.36,905.23z"/>
					</g>
				</g>
				<g>
					<g>
						<path class="st8" d="M505.35,554.84v198.29v25.66l-23.37,10.59c-53.42,24.21-93.29,88.31-66.12,163.98
							c11.75,32.71,35.92,57.4,68.07,69.54c16.73,6.31,33.67,9.51,50.36,9.51c0.05,0,0.1-0.01,0.14-0.01V515.88
							c-0.05,0-0.1-0.02-0.14-0.02C518.6,515.86,505.35,533.71,505.35,554.84z"/>
					</g>
				</g>
				<g>
					<g>
						<path class="st12" d="M740.91,905.29c0,113.9-92.54,206.58-206.44,206.71v-39.79h0.4c1.2,0,2.27-0.13,3.47-0.27
							c5.34-0.13,10.55-0.4,15.76-1.07c2.14-0.27,4.27-0.53,6.28-0.93c4.27-0.67,8.41-1.47,12.42-2.4c2.27-0.53,4.41-1.07,6.54-1.74
							c4.14-1.07,8.01-2.4,12.02-3.87c1.87-0.67,3.74-1.2,5.61-2c5.07-2,9.88-4.27,14.69-6.81c0.67-0.27,1.33-0.53,1.87-0.93
							c5.34-2.94,10.42-6.01,15.36-9.48c1.6-1.07,3.07-2.27,4.54-3.34c3.34-2.54,6.68-5.07,9.88-7.88l4.81-4.41
							c2.94-2.67,5.74-5.47,8.41-8.41c1.47-1.6,2.94-3.2,4.27-4.81c2.94-3.34,5.61-6.81,8.28-10.42c0.93-1.33,2-2.54,2.94-3.87
							c3.34-4.94,6.54-10.15,9.35-15.49c0.67-1.2,1.2-2.54,1.87-3.74c2.14-4.27,4.01-8.41,5.88-12.82c0.8-2,1.47-4.01,2.13-6.01
							c1.34-3.87,2.67-7.74,3.74-11.75c0.67-2.27,1.2-4.41,1.74-6.54c0.93-4.27,1.74-8.55,2.4-12.82c0.27-2,0.67-3.87,0.8-5.87
							c0.8-6.41,1.2-12.82,1.2-19.23c0-67.84-40.33-125.92-98.15-152.1V127.58c0-10.95-1.87-21.37-5.34-30.71
							c-10.42-28.31-34.85-48.07-63.16-48.07V9c59.69,0,108.3,53.15,108.3,118.58v601.71C703.12,766.68,740.91,833.18,740.91,905.29
							z"/>
					</g>
				</g>
				<g>
					<g>
						<path class="st13" d="M378.36,966.85c15.62,43.26,48.47,77.05,91.47,93.21c6.68,2.54,13.35,4.54,20.03,6.28
							c1.87,0.53,3.74,0.93,5.74,1.33c4.94,1.07,10.02,2,14.96,2.67c1.74,0.27,3.47,0.53,5.21,0.8c6.28,0.67,12.42,1.07,18.56,1.07
							c0,0,0,0,0.13,0V1112c-0.13,0-0.13,0-0.13,0c-26.31,0-52.75-4.94-78.52-14.69c-53.55-20.16-95.34-62.89-114.84-117.11
							c-34.59-96.41,1.73-199.77,84.79-250.91V127.58C425.77,62.15,474.51,9,534.33,9c0,0,0,0,0.13,0v39.79c-0.13,0-0.13,0-0.13,0
							c-28.58,0-52.88,19.76-63.43,48.07c-3.47,9.35-5.34,19.76-5.34,30.71v625.61C390.78,786.98,345.25,874.44,378.36,966.85z"/>
					</g>
				</g>
			</g>
		</g>
	</g>
	<g class="st0">
		<g class="st1">
			<rect x="78.95" y="381.36" class="st6" width="959.69" height="613.96"/>
		</g>
		<g class="st1">
			<g>
				<polygon class="st7" points="560.1,128.61 122.95,392.69 122.95,995.33 560.13,995.33 560.13,128.62 				"/>
			</g>
			<g>
				<polygon class="st14" points="560.13,995.33 997.26,995.33 997.26,392.69 560.13,128.62 				"/>
			</g>
			<g>
				<polygon class="st15" points="997.26,327.25 997.26,392.69 1085.34,445.91 1120.26,401.54 				"/>
			</g>
			<g>
				<polygon class="st15" points="0,401.54 34.86,445.91 122.95,392.69 122.95,327.25 				"/>
			</g>
			<g>
				<polygon class="st15" points="560.92,63.6 560.13,65.44 560.13,128.62 997.26,392.69 997.26,327.25 				"/>
			</g>
			<g>
				<polygon class="st15" points="560.13,128.62 560.13,65.44 560.1,65.5 559.34,63.6 122.95,327.25 122.95,392.69 560.1,128.61 
									"/>
			</g>
		</g>
		<g class="st1">
			<g>
				<g>
					<g>
						<path class="st16" d="M511.55,533.85c0,0-54.72,29.04-94.92,32.39c-40.2,3.35-87.1-17.87-111.67-18.98
							c-24.57-1.12-92.69,5.58-92.69,5.58s87.1-136.24,204.36-118.37c117.26,17.87,96.04,96.04,96.04,96.04L511.55,533.85z"/>
					</g>
					<g>
						<path class="st17" d="M561.8,621.91V944.2l-15.63-4.47l1.6-312.02c0.42-39.43-18.52-76.54-50.63-99.41
							c-21.94-15.63-54.35-27.29-67.1-30.18c-59.19-13.4-131.78-2.23-131.78-2.23s89.34-21.22,138.47-5.58
							c20.65,6.57,51.56,17.69,72.68,32.25C542.13,545.1,561.8,582.17,561.8,621.91z"/>
					</g>
				</g>
				<g>
					<g>
						<path class="st16" d="M616.52,531.62c0,0,46.9,20.1,87.1,23.45c40.2,3.35,87.1-17.87,111.67-18.98
							c24.57-1.12,92.69,5.58,92.69,5.58s-87.1-136.24-204.36-118.37c-117.26,17.87-94.92,103.86-94.92,103.86L616.52,531.62z"/>
					</g>
					<g>
						<path class="st18" d="M561.8,621.91V944.2l15.63-4.47l-1.6-312.02c-0.42-39.43,18.52-76.54,50.63-99.41
							c21.94-15.63,54.35-27.29,67.1-30.18c59.19-13.4,131.77-2.23,131.77-2.23s-89.34-21.22-138.47-5.58
							c-20.65,6.57-51.56,17.69-72.68,32.25C581.48,545.1,561.8,582.17,561.8,621.91z"/>
					</g>
				</g>
				<g>
					<path class="st16" d="M558.45,530.5c0,0,17.87,32.39,14.52,48.02c-3.35,15.63-12.28,36.85-12.28,36.85
						s-15.63-32.39-14.52-45.79C547.29,556.19,558.45,530.5,558.45,530.5z"/>
				</g>
			</g>
		</g>
		<g class="st1">
			<path class="st5" d="M122.95,995.33h874.31c0,0-11.69-88.32-85.25-95.68c-73.56-7.36-102.98,22.07-102.98,22.07
				s-24.36-50.3-95.63-58.85c-61.3-7.36-102.98,36.78-102.98,36.78s-29.42-66.2-102.99-51.49c-73.56,14.71-73.56,66.2-73.56,66.2
				s-44.71-53.46-128.41-35.27c-68.55,14.9-70.21,57.33-70.21,57.33s-37.09-9.65-80.92,7.36
				C132.64,952.2,122.95,995.33,122.95,995.33z"/>
		</g>
	</g>
	<g class="st0">
		<g class="st1">
			<g>
				<g>
					<g>
						<path class="st16" d="M300.2,202.14c135.1,0,244.62,109.52,244.62,244.62v89.63c0,135.1-109.52,244.62-244.62,244.62h-8.71
							c-135.1,0-244.62-109.52-244.62-244.62v-89.63c0-135.1,109.52-244.62,244.62-244.62H300.2L300.2,202.14z M300.2,162.27h-8.71
							C134.62,162.27,7,289.89,7,446.76v89.63c0,156.87,127.62,284.49,284.49,284.49h8.71c156.87,0,284.49-127.62,284.49-284.49
							v-89.63C584.69,289.89,457.07,162.27,300.2,162.27L300.2,162.27z"/>
					</g>
				</g>
				<g>
					<g>
						<rect x="572.83" y="482.87" class="st19" width="311.9" height="17.42"/>
					</g>
				</g>
			</g>
			<g>
				<g>
					<g>
						<path class="st17" d="M1065.39,322.88l-46.21,46.21l81.4,81.4l0.46-0.46c25.26-25.27,25.26-66.23,0-91.49L1065.39,322.88z"/>
					</g>
				</g>
				<g>
					<g>
						<path class="st16" d="M1065.39,322.88l-38.92-38.92c-25.26-25.26-66.23-25.26-91.49,0l-0.46,0.46l84.66,84.66L1065.39,322.88z
							"/>
					</g>
				</g>
				<g>
					<g>
						<polygon class="st20" points="956.67,431.6 974.99,449.92 1100.59,450.49 1019.19,369.09 						"/>
					</g>
				</g>
				<g>
					<g>
						<polygon class="st21" points="1019.19,369.09 934.52,284.42 935.09,410.03 956.67,431.6 						"/>
					</g>
				</g>
				<g>
					<g>
						<polygon class="st21" points="605.13,783.14 637.61,834.37 974.99,449.92 956.67,431.6 						"/>
					</g>
				</g>
				<g>
					<g>
						<polygon class="st19" points="935.09,410.03 575.87,736.97 605.13,783.14 956.67,431.6 						"/>
					</g>
				</g>
			</g>
			<g>
				<g>
					<g>
						<path class="st19" d="M195.35,406.86l-33.4,480.59h239.67V350.12H256.18C224.14,350.12,197.57,374.9,195.35,406.86z"/>
					</g>
				</g>
				<g>
					<g>
						<path class="st22" d="M364.31,387.51c0,0-18.59,12.45-39.83,16.42c-33.42,6.25-59.28,38.6-61.22,72.54l-21.33,373.64h-39.96
							l27.24-391.76c2.45-35.15,30.35-63.17,65.5-65.74L364.31,387.51z"/>
					</g>
				</g>
				<g>
					<g>
						<path class="st21" d="M547.07,350.12H401.62v537.34H641.3l-33.4-480.59C605.67,374.9,579.1,350.12,547.07,350.12z"/>
					</g>
				</g>
				<g>
					<g>
						<polygon class="st20" points="601.21,850.11 439.01,850.11 439.01,820.97 572.21,820.97 575.87,461.08 						"/>
					</g>
				</g>
			</g>
		</g>
		<g class="st1">
			<g>
				<g>
					<path class="st6" d="M346.17,690.32c0,31.04,25.16,56.2,56.2,56.2V571.67C402.37,571.67,346.17,659.28,346.17,690.32z"/>
				</g>
				<g>
					<path class="st7" d="M402.37,571.67v174.84c31.04,0,56.2-25.16,56.2-56.2C458.57,659.28,402.37,571.67,402.37,571.67z"/>
				</g>
			</g>
			<g>
				<path class="st2" d="M395.09,700.72c0,9.2-7.45,16.65-16.65,16.65c-9.2,0-16.65-7.46-16.65-16.65c0-9.2,7.45-16.65,16.65-16.65
					C387.63,684.07,395.09,691.53,395.09,700.72z"/>
			</g>
		</g>
	</g>
</g>
</svg>
