<?xml version="1.0" encoding="utf-8"?>
<!-- Generator: Adobe Illustrator 24.3.0, SVG Export Plug-In . SVG Version: 6.00 Build 0)  -->
<svg version="1.1" xmlns="http://www.w3.org/2000/svg" xmlns:xlink="http://www.w3.org/1999/xlink" x="0px" y="0px"
	 viewBox="0 0 1122 1122" style="enable-background:new 0 0 1122 1122;" xml:space="preserve">
<style type="text/css">
	.st0{display:none;}
	.st1{display:inline;}
	.st2{fill:#FFFFFF;}
	.st3{fill:#9DAA50;}
	.st4{fill:#616E7D;}
	.st5{fill:#754B21;}
	.st6{fill:#D3FBFF;}
	.st7{fill:#BFF6FF;}
	.st8{fill:#DD4B23;}
	.st9{fill:#F6F6F6;}
	.st10{fill:#F0F1F1;}
	.st11{fill:#C14320;}
	.st12{fill:#B8D6D3;}
	.st13{fill:#D4E6E3;}
	.st14{fill:#D1FBFF;}
	.st15{fill:#E4FBFF;}
	.st16{fill:#9ACC45;}
	.st17{fill:#86B43C;}
	.st18{fill:#7EA735;}
	.st19{fill:#F4DA56;}
	.st20{fill:#EDB931;}
	.st21{fill:#F0C641;}
	.st22{fill:#F7E587;}
</style>
<g id="Bg" class="st0">
	<g class="st1">
		<g>
			<rect class="st2" width="1122" height="1122"/>
		</g>
	</g>
</g>
<g id="Object" class="st0">
	<g class="st1">
		<path class="st3" d="M864.04,529.99c-47.12,0-86.55,32.86-96.66,76.89c-7.7-2.27-15.83-3.52-24.24-3.52
			c-46.99,0-85.07,38.09-85.07,85.08c0,46.95,38.09,85.06,85.07,85.06h0.15h225.52v-0.01c36.62-0.29,66.19-30.06,66.19-66.73
			c0-36.85-29.85-66.71-66.71-66.71c-1.9,0-3.77,0.1-5.64,0.26c0.39-3.64,0.65-7.33,0.65-11.08
			C963.3,574.41,918.85,529.99,864.04,529.99z"/>
		<path class="st4" d="M743.14,575.14c1.77,0,3.58,0.06,5.37,0.14c20.51-44.32,64.91-73.51,115.52-73.51
			c65.32,0,119.32,49.37,126.63,112.75c4.18,0.99,8.17,2.5,12.15,4.07c4.26-16.57,6.8-33.83,6.8-51.73
			c0-114.11-92.53-206.61-206.64-206.61c-20.48,0-40.22,3.01-58.86,8.55C719.45,261.78,623.7,181.96,509.23,181.96
			c-133.15,0-241.06,107.94-241.06,241.07c0,9.11,0.53,18.09,1.53,26.95c-4.53-0.37-9.1-0.62-13.7-0.62
			c-89.5,0-162.05,72.55-162.05,162.06c0,89.09,71.87,161.36,160.79,162.05v0.03h413.84c-23.66-20.78-38.72-51.17-38.72-85.06
			C629.85,625.97,680.67,575.14,743.14,575.14z"/>
		<path class="st3" d="M639.09,126.6l-2.79-0.4c-5.34,0-9.7,4.35-9.7,9.69v35.42c0,3.98,2.55,7.56,6.3,8.93
			c56.23,20.14,101.37,63.46,123.95,118.85c1.47,3.58,4.91,5.88,8.75,5.88h36.1c3.11,0,6.05-1.53,7.87-4.06
			c1.81-2.56,2.29-5.8,1.27-8.74C783.43,213.04,719.21,151.14,639.09,126.6z"/>
		<path class="st4" d="M650.42,24.72l-2.1-0.2c-5.35,0-9.7,4.31-9.7,9.66v34.89c0,4.34,2.96,8.12,7.22,9.2
			c103.13,25.68,185.02,105.25,213.77,207.72c1.13,4.09,4.88,6.96,9.11,6.96h34.99c3,0,5.78-1.39,7.62-3.76
			c1.84-2.35,2.48-5.4,1.76-8.27C881.26,153.75,778.14,53.19,650.42,24.72z"/>
	</g>
</g>
<g id="Layer_3">
	<g class="st0">
		<g class="st1">
			<g>
				<circle class="st5" cx="626.82" cy="459.72" r="84.83"/>
			</g>
			<g>
				<circle class="st5" cx="518.58" cy="491.9" r="84.83"/>
			</g>
			<g>
				<path class="st5" d="M752.6,500.67c0,30.7-24.88,55.58-55.58,55.58c-30.7,0-55.58-24.88-55.58-55.58s24.88-55.58,55.58-55.58
					C727.72,445.09,752.6,469.98,752.6,500.67z"/>
			</g>
			<g>
				<path class="st5" d="M477.63,497.75c0,30.7-24.88,55.58-55.58,55.58s-55.58-24.88-55.58-55.58c0-30.7,24.88-55.58,55.58-55.58
					S477.63,467.05,477.63,497.75z"/>
			</g>
			<g>
				<rect x="369.4" y="500.67" class="st5" width="386.13" height="246.44"/>
			</g>
		</g>
		<g class="st1">
			<g>
				<g>
					<path class="st6" d="M461.42,365.03c0,15.79,12.8,28.58,28.58,28.58v-88.92C490,304.69,461.42,349.24,461.42,365.03z"/>
				</g>
				<g>
					<path class="st7" d="M490,304.69v88.92c15.78,0,28.58-12.8,28.58-28.58C518.58,349.24,490,304.69,490,304.69z"/>
				</g>
			</g>
			<g>
				<path class="st2" d="M486.29,370.32c0,4.68-3.79,8.47-8.47,8.47s-8.47-3.79-8.47-8.47c0-4.68,3.79-8.47,8.47-8.47
					S486.29,365.64,486.29,370.32z"/>
			</g>
		</g>
		<g class="st1">
			<g>
				<g>
					<path class="st6" d="M556.21,302.86c0,12.03,9.76,21.79,21.79,21.79v-67.79C578,256.86,556.21,290.82,556.21,302.86z"/>
				</g>
				<g>
					<path class="st7" d="M578,256.86v67.79c12.03,0,21.79-9.76,21.79-21.79C599.79,290.82,578,256.86,578,256.86z"/>
				</g>
			</g>
			<g>
				<path class="st2" d="M575.18,306.89c0,3.57-2.89,6.46-6.46,6.46c-3.57,0-6.46-2.89-6.46-6.46c0-3.57,2.89-6.46,6.46-6.46
					C572.28,300.44,575.18,303.33,575.18,306.89z"/>
			</g>
		</g>
		<g class="st1">
			<g>
				<g>
					<path class="st6" d="M672.21,386.3c0,12.03,9.76,21.79,21.79,21.79v-67.79C694,340.29,672.21,374.26,672.21,386.3z"/>
				</g>
				<g>
					<path class="st7" d="M694,340.29v67.79c12.03,0,21.79-9.76,21.79-21.79C715.79,374.26,694,340.29,694,340.29z"/>
				</g>
			</g>
			<g>
				<path class="st2" d="M691.18,390.33c0,3.57-2.89,6.46-6.46,6.46c-3.57,0-6.46-2.89-6.46-6.46c0-3.57,2.89-6.46,6.46-6.46
					C688.28,383.87,691.18,386.77,691.18,390.33z"/>
			</g>
		</g>
		<g class="st1">
			<g>
				<g>
					<path class="st6" d="M382.8,316.03c0,9.5,7.7,17.2,17.2,17.2v-53.5C400,279.73,382.8,306.54,382.8,316.03z"/>
				</g>
				<g>
					<path class="st7" d="M400,279.73v53.5c9.5,0,17.2-7.7,17.2-17.2C417.2,306.54,400,279.73,400,279.73z"/>
				</g>
			</g>
			<g>
				<path class="st2" d="M397.77,319.22c0,2.81-2.28,5.09-5.09,5.09s-5.09-2.28-5.09-5.09c0-2.81,2.28-5.1,5.09-5.1
					S397.77,316.4,397.77,319.22z"/>
			</g>
		</g>
	</g>
	<g class="st0">
		<g class="st1">
			<rect x="614.52" y="351.49" class="st8" width="52.79" height="15.23"/>
		</g>
		<g class="st1">
			<rect x="614.52" y="394.64" class="st8" width="28.43" height="15.23"/>
		</g>
		<g class="st1">
			<rect x="614.52" y="437.79" class="st8" width="52.79" height="15.23"/>
		</g>
		<g class="st1">
			<rect x="614.52" y="480.94" class="st8" width="28.43" height="15.23"/>
		</g>
		<g class="st1">
			<rect x="614.52" y="524.08" class="st8" width="52.79" height="15.23"/>
		</g>
		<g class="st1">
			<rect x="614.52" y="567.23" class="st8" width="28.43" height="15.23"/>
		</g>
		<g class="st1">
			<rect x="614.52" y="610.38" class="st8" width="52.79" height="15.23"/>
		</g>
		<g class="st1">
			<g>
				<g>
					<path class="st9" d="M548.89,309.42v503.17c-0.06,0-0.06,0-0.06,0c-12,0-24.06-2.25-35.82-6.7
						c-24.43-9.2-43.49-28.69-52.39-53.42c-15.78-43.98,0.79-91.13,38.68-114.46V363.51c0-29.85,22.23-54.09,49.52-54.09
						C548.83,309.42,548.83,309.42,548.89,309.42z"/>
				</g>
				<g>
					<path class="st10" d="M643.07,718.29c0,51.96-42.21,94.24-94.18,94.3V309.42c27.23,0,49.4,24.24,49.4,54.09V638
						C625.83,655.05,643.07,685.39,643.07,718.29z"/>
				</g>
			</g>
			<g>
				<g>
					<g>
						<path class="st11" d="M606.78,718.26c0-22.71-13.39-43.46-34.12-52.85l-10.66-4.83v-11.7v-90.46
							c0-9.61-6.01-17.72-13.13-17.77v235.63C580.81,776.24,606.78,750.23,606.78,718.26z"/>
					</g>
				</g>
				<g>
					<g>
						<path class="st8" d="M535.61,558.42v90.46v11.7l-10.66,4.83c-24.37,11.04-42.56,40.29-30.16,74.8
							c5.36,14.92,16.39,26.19,31.05,31.72c7.63,2.88,15.36,4.34,22.97,4.34c0.02,0,0.04,0,0.07,0V540.65
							c-0.02,0-0.04-0.01-0.07-0.01C541.66,540.64,535.61,548.78,535.61,558.42z"/>
					</g>
				</g>
				<g>
					<g>
						<path class="st12" d="M643.07,718.29c0,51.96-42.21,94.24-94.18,94.3v-18.15h0.18c0.55,0,1.04-0.06,1.58-0.12
							c2.44-0.06,4.81-0.18,7.19-0.49c0.97-0.12,1.95-0.24,2.86-0.43c1.95-0.3,3.84-0.67,5.67-1.1c1.03-0.24,2.01-0.49,2.98-0.79
							c1.89-0.49,3.66-1.1,5.48-1.77c0.85-0.3,1.71-0.55,2.56-0.91c2.31-0.91,4.51-1.95,6.7-3.11c0.3-0.12,0.61-0.24,0.85-0.43
							c2.44-1.34,4.75-2.74,7.01-4.33c0.73-0.49,1.4-1.04,2.07-1.52c1.52-1.16,3.05-2.31,4.51-3.59l2.19-2.01
							c1.34-1.22,2.62-2.5,3.84-3.84c0.67-0.73,1.34-1.46,1.95-2.19c1.34-1.52,2.56-3.11,3.78-4.75c0.43-0.61,0.91-1.16,1.34-1.77
							c1.52-2.25,2.98-4.63,4.26-7.07c0.3-0.55,0.55-1.16,0.85-1.7c0.97-1.95,1.83-3.84,2.68-5.85c0.37-0.91,0.67-1.83,0.97-2.74
							c0.61-1.77,1.22-3.53,1.71-5.36c0.3-1.04,0.55-2.01,0.79-2.99c0.43-1.95,0.79-3.9,1.1-5.85c0.12-0.91,0.3-1.77,0.37-2.68
							c0.37-2.92,0.55-5.85,0.55-8.77c0-30.95-18.4-57.44-44.77-69.38V363.51c0-5-0.85-9.75-2.44-14.01
							c-4.75-12.91-15.9-21.93-28.81-21.93v-18.15c27.23,0,49.4,24.24,49.4,54.09V638C625.83,655.05,643.07,685.39,643.07,718.29z"
							/>
					</g>
				</g>
				<g>
					<g>
						<path class="st13" d="M477.68,746.37c7.13,19.74,22.11,35.15,41.73,42.52c3.05,1.16,6.09,2.07,9.14,2.86
							c0.85,0.24,1.71,0.43,2.62,0.61c2.25,0.49,4.57,0.91,6.82,1.22c0.79,0.12,1.58,0.24,2.38,0.37c2.86,0.3,5.67,0.49,8.47,0.49
							c0,0,0,0,0.06,0v18.15c-0.06,0-0.06,0-0.06,0c-12,0-24.06-2.25-35.82-6.7c-24.43-9.2-43.49-28.69-52.39-53.42
							c-15.78-43.98,0.79-91.13,38.68-114.46V363.51c0-29.85,22.23-54.09,49.52-54.09c0,0,0,0,0.06,0v18.15c-0.06,0-0.06,0-0.06,0
							c-13.04,0-24.12,9.02-28.93,21.93c-1.58,4.26-2.44,9.02-2.44,14.01V648.9C483.35,664.31,462.58,704.21,477.68,746.37z"/>
					</g>
				</g>
			</g>
		</g>
	</g>
	<g class="st0">
		<g class="st1">
			<rect x="364.61" y="499.55" class="st6" width="412.4" height="263.83"/>
		</g>
		<g class="st1">
			<g>
				<polygon class="st7" points="571.37,390.93 383.52,504.42 383.52,763.38 571.39,763.38 571.39,390.94 				"/>
			</g>
			<g>
				<polygon class="st14" points="571.39,763.38 759.23,763.38 759.23,504.42 571.39,390.94 				"/>
			</g>
			<g>
				<polygon class="st15" points="759.23,476.3 759.23,504.42 797.08,527.29 812.09,508.22 				"/>
			</g>
			<g>
				<polygon class="st15" points="330.69,508.22 345.67,527.29 383.52,504.42 383.52,476.3 				"/>
			</g>
			<g>
				<polygon class="st15" points="571.72,363 571.39,363.79 571.39,390.94 759.23,504.42 759.23,476.3 				"/>
			</g>
			<g>
				<polygon class="st15" points="571.39,390.94 571.39,363.79 571.37,363.82 571.05,363 383.52,476.3 383.52,504.42 571.37,390.93 
									"/>
			</g>
		</g>
		<g class="st1">
			<g>
				<g>
					<g>
						<path class="st16" d="M550.51,565.08c0,0-23.51,12.48-40.79,13.92c-17.28,1.44-37.43-7.68-47.99-8.16s-39.83,2.4-39.83,2.4
							s37.43-58.55,87.82-50.87c50.39,7.68,41.27,41.27,41.27,41.27L550.51,565.08z"/>
					</g>
					<g>
						<path class="st17" d="M572.11,602.92v138.49l-6.72-1.92l0.69-134.08c0.18-16.94-7.96-32.89-21.76-42.72
							c-9.43-6.72-23.35-11.73-28.84-12.97c-25.43-5.76-56.63-0.96-56.63-0.96s38.39-9.12,59.51-2.4
							c8.88,2.82,22.16,7.6,31.23,13.86C563.65,569.91,572.11,585.84,572.11,602.92z"/>
					</g>
				</g>
				<g>
					<g>
						<path class="st16" d="M595.62,564.12c0,0,20.15,8.64,37.43,10.08c17.28,1.44,37.43-7.68,47.99-8.16
							c10.56-0.48,39.83,2.4,39.83,2.4s-37.43-58.55-87.82-50.87c-50.39,7.68-40.79,44.63-40.79,44.63L595.62,564.12z"/>
					</g>
					<g>
						<path class="st18" d="M572.11,602.92v138.49l6.72-1.92l-0.69-134.08c-0.18-16.94,7.96-32.89,21.76-42.72
							c9.43-6.72,23.35-11.73,28.84-12.97c25.43-5.76,56.63-0.96,56.63-0.96s-38.39-9.12-59.51-2.4
							c-8.88,2.82-22.16,7.6-31.23,13.86C580.56,569.91,572.11,585.84,572.11,602.92z"/>
					</g>
				</g>
				<g>
					<path class="st16" d="M570.67,563.64c0,0,7.68,13.92,6.24,20.63c-1.44,6.72-5.28,15.84-5.28,15.84s-6.72-13.92-6.24-19.68
						C565.87,574.67,570.67,563.64,570.67,563.64z"/>
				</g>
			</g>
		</g>
		<g class="st1">
			<path class="st5" d="M383.52,763.38h375.71c0,0-5.02-37.95-36.63-41.12c-31.61-3.16-44.25,9.48-44.25,9.48
				s-10.47-21.61-41.09-25.29c-26.34-3.16-44.25,15.8-44.25,15.8s-12.64-28.45-44.26-22.13c-31.61,6.32-31.61,28.45-31.61,28.45
				s-19.21-22.97-55.18-15.15c-29.46,6.4-30.17,24.64-30.17,24.64s-15.94-4.15-34.77,3.16
				C387.69,744.85,383.52,763.38,383.52,763.38z"/>
		</g>
	</g>
	<g>
		<g>
			<g>
				<g>
					<g>
						<path class="st16" d="M509.9,411.78c59.34,0,107.45,48.11,107.45,107.45v39.37c0,59.34-48.11,107.45-107.45,107.45h-3.83
							c-59.34,0-107.45-48.11-107.45-107.45v-39.37c0-59.34,48.11-107.45,107.45-107.45H509.9L509.9,411.78z M509.9,394.27h-3.83
							c-68.91,0-124.96,56.06-124.96,124.96v39.37c0,68.91,56.06,124.96,124.96,124.96h3.83c68.91,0,124.96-56.06,124.96-124.96
							v-39.37C634.86,450.32,578.8,394.27,509.9,394.27L509.9,394.27z"/>
					</g>
				</g>
				<g>
					<g>
						<rect x="629.65" y="535.09" class="st19" width="137" height="7.65"/>
					</g>
				</g>
			</g>
			<g>
				<g>
					<g>
						<path class="st17" d="M846.01,464.81l-20.3,20.3l35.76,35.76l0.2-0.2c11.1-11.1,11.1-29.09,0-40.19L846.01,464.81z"/>
					</g>
				</g>
				<g>
					<g>
						<path class="st16" d="M846.01,464.81l-17.1-17.1c-11.1-11.1-29.09-11.1-40.19,0l-0.2,0.2l37.19,37.19L846.01,464.81z"/>
					</g>
				</g>
				<g>
					<g>
						<polygon class="st20" points="798.25,512.57 806.3,520.62 861.47,520.87 825.72,485.11 						"/>
					</g>
				</g>
				<g>
					<g>
						<polygon class="st21" points="825.72,485.11 788.53,447.92 788.78,503.09 798.25,512.57 						"/>
					</g>
				</g>
				<g>
					<g>
						<polygon class="st21" points="643.84,666.99 658.11,689.49 806.3,520.62 798.25,512.57 						"/>
					</g>
				</g>
				<g>
					<g>
						<polygon class="st19" points="788.78,503.09 630.99,646.71 643.84,666.99 798.25,512.57 						"/>
					</g>
				</g>
			</g>
			<g>
				<g>
					<g>
						<path class="st19" d="M463.84,501.7l-14.67,211.1h105.28V476.78h-63.89C476.49,476.78,464.82,487.67,463.84,501.7z"/>
					</g>
				</g>
				<g>
					<g>
						<path class="st22" d="M538.06,493.2c0,0-8.17,5.47-17.49,7.21c-14.68,2.74-26.04,16.96-26.89,31.86l-9.37,164.12h-17.55
							l11.96-172.08c1.07-15.44,13.33-27.75,28.77-28.88L538.06,493.2z"/>
					</g>
				</g>
				<g>
					<g>
						<path class="st21" d="M618.34,476.78h-63.89v236.03h105.28l-14.67-211.1C644.08,487.67,632.41,476.78,618.34,476.78z"/>
					</g>
				</g>
				<g>
					<g>
						<polygon class="st20" points="642.12,696.4 570.87,696.4 570.87,683.6 629.38,683.6 630.99,525.52 						"/>
					</g>
				</g>
			</g>
		</g>
		<g>
			<g>
				<g>
					<path class="st6" d="M530.09,626.21c0,13.63,11.05,24.69,24.69,24.69v-76.8C554.78,574.1,530.09,612.58,530.09,626.21z"/>
				</g>
				<g>
					<path class="st7" d="M554.78,574.1v76.8c13.63,0,24.69-11.05,24.69-24.69C579.46,612.58,554.78,574.1,554.78,574.1z"/>
				</g>
			</g>
			<g>
				<path class="st2" d="M551.58,630.78c0,4.04-3.27,7.31-7.31,7.31c-4.04,0-7.31-3.28-7.31-7.31c0-4.04,3.27-7.31,7.31-7.31
					C548.3,623.47,551.58,626.74,551.58,630.78z"/>
			</g>
		</g>
	</g>
</g>
</svg>
